<svg xmlns="http://www.w3.org/2000/svg" viewBox="0 0 410 404"><defs><linearGradient id="a" x1="152.76" x2="155.17" y1="144.36" y2="277.93" gradientUnits="userSpaceOnUse"><stop offset="0" stop-color="#41d1ff"></stop><stop offset="1" stop-color="#bd34fe"></stop></linearGradient><linearGradient id="b" x1="193.09" x2="252.27" y1="145.71" y2="240.49" gradientUnits="userSpaceOnUse"><stop offset="0" stop-color="#ffea83"></stop><stop offset=".08" stop-color="#ffdd35"></stop><stop offset="1" stop-color="#ffa800"></stop></linearGradient></defs><path fill="url(#a)" d="M399.84 9.88 204.35 394.6c-1.9 3.76-7.18 3.76-9.08 0L-.02 9.88C-1.95 6.02 1.28 1.43 5.6 2.14L204.3 36.34c1.02.17 2.06.17 3.08 0l198.7-34.2c4.32-.71 7.55 3.88 5.76 7.74Z"></path><path fill="url(#b)" d="m287.4 135.58-77.52 159.6c-.9 1.84-3.54 1.84-4.44 0l-77.52-159.6c-1.08-2.22.91-4.67 3.3-4.21l75.73 14.47c.39.07.8.07 1.18 0l75.73-14.47c2.39-.46 4.38 1.99 3.3 4.21Z"></path></svg>
